<!--?xml version="1.0" standalone="no"?-->
              <svg id="sw-js-blob-svg" viewBox="0 0 100 100" xmlns="http://www.w3.org/2000/svg" version="1.1">
                    <defs> 
                        <linearGradient id="sw-gradient" x1="0" x2="1" y1="1" y2="0">
                            <stop id="stop1" stop-color="rgba(55, 234.923, 248, 1)" offset="0%"></stop>
                            <stop id="stop2" stop-color="rgba(232.926, 229.177, 222.99, 1)" offset="100%"></stop>
                        </linearGradient>
                    </defs>
                <path fill="url(#sw-gradient)" d="M27,-31.2C33.5,-26.7,36.4,-16.8,36.9,-7.5C37.4,1.9,35.5,10.7,30.9,17.1C26.3,23.6,19,27.7,10.8,31.6C2.6,35.4,-6.4,38.8,-13.7,36.6C-21,34.4,-26.7,26.5,-31.3,18.2C-36,9.9,-39.6,1.2,-37.5,-6C-35.5,-13.1,-27.8,-18.5,-20.6,-23C-13.4,-27.4,-6.7,-30.9,1.8,-33C10.2,-35.1,20.4,-35.8,27,-31.2Z" width="100%" height="100%" transform="translate(50 50)" stroke-width="0" style="transition: all 0.3s ease 0s;"></path>
              </svg>